
<svg width="114" height="41" viewBox="0 0 114 41" fill="none" xmlns="http://www.w3.org/2000/svg">
<path d="M11.2289 17.185C11.2289 15.743 11.4858 14.4834 11.9996 13.406C12.53 12.3287 13.2427 11.5 14.1377 10.9199C15.0493 10.3397 16.0604 10.0497 17.1708 10.0497C18.1322 10.0497 18.9609 10.2403 19.657 10.6215C20.3532 11.0027 20.8918 11.5165 21.273 12.1629V10.2237H26.1459V24.1712H21.273V22.232C20.8918 22.8784 20.3449 23.3922 19.6322 23.7734C18.936 24.1546 18.1156 24.3452 17.1708 24.3452C16.0604 24.3452 15.0493 24.0552 14.1377 23.475C13.2427 22.8949 12.53 22.0662 11.9996 20.9889C11.4858 19.895 11.2289 18.627 11.2289 17.185ZM21.273 17.185C21.273 16.29 21.0244 15.5856 20.5272 15.0718C20.0465 14.558 19.4498 14.3011 18.7371 14.3011C18.0079 14.3011 17.4029 14.558 16.9222 15.0718C16.4416 15.569 16.2012 16.2734 16.2012 17.185C16.2012 18.08 16.4416 18.7927 16.9222 19.3231C17.4029 19.8369 18.0079 20.0938 18.7371 20.0938C19.4498 20.0938 20.0465 19.8369 20.5272 19.3231C21.0244 18.8093 21.273 18.0966 21.273 17.185Z" fill="#166534"/>
<path d="M33.2984 12.1629C33.6796 11.5 34.2183 10.9862 34.9144 10.6215C35.6105 10.2403 36.4309 10.0497 37.3757 10.0497C38.4862 10.0497 39.4889 10.3397 40.384 10.9199C41.2956 11.5 42.0083 12.3287 42.5221 13.406C43.0525 14.4834 43.3177 15.743 43.3177 17.185C43.3177 18.627 43.0525 19.895 42.5221 20.9889C42.0083 22.0662 41.2956 22.8949 40.384 23.475C39.4889 24.0552 38.4862 24.3452 37.3757 24.3452C36.4309 24.3452 35.6105 24.1629 34.9144 23.7983C34.2183 23.417 33.6796 22.8949 33.2984 22.232V24.1712H28.4255V3.47145H33.2984V12.1629ZM38.3702 17.185C38.3702 16.2734 38.1215 15.569 37.6243 15.0718C37.1437 14.558 36.547 14.3011 35.8343 14.3011C35.1216 14.3011 34.5166 14.558 34.0194 15.0718C33.5387 15.5856 33.2984 16.29 33.2984 17.185C33.2984 18.0966 33.5387 18.8093 34.0194 19.3231C34.5166 19.8369 35.1216 20.0938 35.8343 20.0938C36.547 20.0938 37.1437 19.8369 37.6243 19.3231C38.1215 18.7927 38.3702 18.08 38.3702 17.185Z" fill="#166534"/>
<path d="M47.2878 8.93091C46.4259 8.93091 45.7298 8.69887 45.1994 8.23478C44.6856 7.75412 44.4287 7.15744 44.4287 6.44473C44.4287 5.71546 44.6856 5.11049 45.1994 4.62983C45.7298 4.14916 46.4259 3.90883 47.2878 3.90883C48.1331 3.90883 48.8126 4.14916 49.3264 4.62983C49.8568 5.11049 50.122 5.71546 50.122 6.44473C50.122 7.15744 49.8568 7.75412 49.3264 8.23478C48.8126 8.69887 48.1331 8.93091 47.2878 8.93091ZM49.6994 10.2237V24.1712H44.8265V10.2237H49.6994Z" fill="#166534"/>
<path d="M51.1816 17.185C51.1816 15.743 51.4385 14.4834 51.9523 13.406C52.4827 12.3287 53.1954 11.5 54.0904 10.9199C55.002 10.3397 56.013 10.0497 57.1235 10.0497C58.0848 10.0497 58.9136 10.2403 59.6097 10.6215C60.3058 11.0027 60.8445 11.5165 61.2257 12.1629V10.2237H66.0986V24.1712H61.2257V22.232C60.8445 22.8784 60.2975 23.3922 59.5848 23.7734C58.8887 24.1546 58.0683 24.3452 57.1235 24.3452C56.013 24.3452 55.002 24.0552 54.0904 23.475C53.1954 22.8949 52.4827 22.0662 51.9523 20.9889C51.4385 19.895 51.1816 18.627 51.1816 17.185ZM61.2257 17.185C61.2257 16.29 60.9771 15.5856 60.4799 15.0718C59.9992 14.558 59.4025 14.3011 58.6898 14.3011C57.9605 14.3011 57.3556 14.558 56.8749 15.0718C56.3942 15.569 56.1539 16.2734 56.1539 17.185C56.1539 18.08 56.3942 18.7927 56.8749 19.3231C57.3556 19.8369 57.9605 20.0938 58.6898 20.0938C59.4025 20.0938 59.9992 19.8369 60.4799 19.3231C60.9771 18.8093 61.2257 18.0966 61.2257 17.185Z" fill="#166534"/>
<path d="M70.1433 14.2265C70.5245 13.1326 71.2124 12.2375 72.2068 11.5414C73.2179 10.8453 74.4361 10.4972 75.8615 10.4972C77.1212 10.4972 78.24 10.779 79.2179 11.3425C80.2123 11.906 80.983 12.7099 81.53 13.7541C82.0935 14.7983 82.3753 16.0165 82.3753 17.4088C82.3753 18.801 82.0935 20.0275 81.53 21.0883C80.983 22.1325 80.2123 22.9447 79.2179 23.5248C78.24 24.0883 77.1212 24.3701 75.8615 24.3701C74.4527 24.3701 73.2428 24.022 72.2317 23.3259C71.2372 22.6132 70.5411 21.7181 70.1433 20.6408V30.5358H69.0245V10.6712H70.1433V14.2265ZM81.2317 17.4088C81.2317 16.1823 80.9996 15.1215 80.5355 14.2265C80.0714 13.3314 79.4168 12.6519 78.5715 12.1878C77.7427 11.7071 76.7814 11.4668 75.6875 11.4668C74.6433 11.4668 73.6986 11.7154 72.8532 12.2127C72.0079 12.6933 71.345 13.3895 70.8643 14.3011C70.3836 15.1961 70.1433 16.232 70.1433 17.4088C70.1433 18.6021 70.3836 19.6546 70.8643 20.5662C71.345 21.4612 72.0079 22.1574 72.8532 22.6546C73.6986 23.1353 74.6433 23.3756 75.6875 23.3756C76.7814 23.3756 77.7427 23.1353 78.5715 22.6546C79.4168 22.1739 80.0714 21.4861 80.5355 20.5911C80.9996 19.6961 81.2317 18.6353 81.2317 17.4088Z" fill="#166534"/>
<path d="M84.5594 17.4088C84.5594 16.0165 84.8329 14.7983 85.3799 13.7541C85.9434 12.7099 86.7141 11.906 87.692 11.3425C88.6865 10.779 89.8136 10.4972 91.0732 10.4972C92.4986 10.4972 93.7086 10.8453 94.703 11.5414C95.6975 12.2375 96.3937 13.1243 96.7914 14.2016V10.6712H97.9102V24.1712H96.7914V20.6159C96.3937 21.7099 95.6892 22.6132 94.6782 23.3259C93.6837 24.022 92.4821 24.3701 91.0732 24.3701C89.8136 24.3701 88.6865 24.0883 87.692 23.5248C86.7141 22.9447 85.9434 22.1325 85.3799 21.0883C84.8329 20.0275 84.5594 18.801 84.5594 17.4088ZM96.7914 17.4088C96.7914 16.232 96.5428 15.1961 96.0456 14.3011C95.5649 13.3895 94.9019 12.6933 94.0566 12.2127C93.2113 11.7154 92.2666 11.4668 91.2224 11.4668C90.1285 11.4668 89.1672 11.7071 88.3384 12.1878C87.5097 12.6519 86.8633 13.3314 86.3992 14.2265C85.9351 15.1215 85.7031 16.1823 85.7031 17.4088C85.7031 18.6353 85.9351 19.6961 86.3992 20.5911C86.8633 21.4861 87.5097 22.1739 88.3384 22.6546C89.1837 23.1353 90.1451 23.3756 91.2224 23.3756C92.2666 23.3756 93.2113 23.1353 94.0566 22.6546C94.9185 22.1574 95.5898 21.4612 96.0705 20.5662C96.5511 19.6546 96.7914 18.6021 96.7914 17.4088Z" fill="#166534"/>
<path d="M112.028 10.6712L104.172 30.5109H103.028L105.539 24.1712L99.8706 10.6712H101.089L106.161 22.9281L110.884 10.6712H112.028Z" fill="#166534"/>
<path d="M8.17822 17.9921L2.04456 21.5333L2.04456 14.4508L8.17822 17.9921Z" fill="#166534"/>
<path d="M15.1834 37.0528C14.6899 37.0528 14.2372 36.9545 13.8254 36.7578C13.4172 36.5612 13.0889 36.2736 12.8403 35.8952C12.5954 35.5167 12.4729 35.0566 12.4729 34.5149C12.4729 34.1587 12.536 33.8451 12.6622 33.5743C12.7883 33.3034 12.9831 33.0697 13.2466 32.873C13.51 32.6764 13.8477 32.5149 14.2595 32.3888C14.6714 32.2589 15.163 32.1587 15.7344 32.0882C16.1685 32.0363 16.5563 31.9862 16.8976 31.938C17.239 31.886 17.5062 31.8063 17.6991 31.6986C17.8958 31.591 17.9941 31.4278 17.9941 31.2089V30.8527C17.9941 30.2293 17.7974 29.734 17.4041 29.3666C17.0108 28.9993 16.4691 28.8156 15.7789 28.8156C15.1667 28.8156 14.651 28.9511 14.2317 29.2219C13.8161 29.4891 13.5248 29.8341 13.3579 30.2571L12.7178 30.0178C12.8811 29.6097 13.1167 29.2702 13.4247 28.9993C13.7363 28.7284 14.0925 28.5262 14.4933 28.3926C14.8977 28.2591 15.3207 28.1923 15.7622 28.1923C16.1444 28.1923 16.508 28.2461 16.8531 28.3537C17.2019 28.4613 17.5117 28.6245 17.7826 28.8435C18.0572 29.0624 18.2742 29.3425 18.4338 29.6839C18.5933 30.0215 18.6731 30.426 18.6731 30.8972V36.8692H17.9941V35.3275H17.944C17.7956 35.6466 17.5915 35.9378 17.3318 36.2013C17.0757 36.461 16.7659 36.6688 16.4023 36.8246C16.0424 36.9768 15.6361 37.0528 15.1834 37.0528ZM15.2502 36.4239C15.7845 36.4239 16.2576 36.294 16.6694 36.0343C17.085 35.7709 17.4097 35.411 17.6434 34.9546C17.8772 34.4982 17.9941 33.9806 17.9941 33.4017V32.1439C17.9087 32.2181 17.7844 32.2849 17.6212 32.3443C17.4616 32.3999 17.2798 32.45 17.0757 32.4945C16.8754 32.5354 16.6639 32.5725 16.4413 32.6059C16.2223 32.6355 16.009 32.6634 15.8012 32.6893C15.1778 32.7635 14.6695 32.8786 14.2762 33.0344C13.8866 33.1865 13.6009 33.3869 13.4191 33.6355C13.241 33.8841 13.1519 34.1846 13.1519 34.5371C13.1519 35.1197 13.3523 35.5798 13.753 35.9174C14.1538 36.2551 14.6528 36.4239 15.2502 36.4239ZM26.0139 40.2531C25.4833 40.2531 25.0065 40.1826 24.5835 40.0416C24.1605 39.9043 23.8006 39.7076 23.5038 39.4516C23.2106 39.1956 22.9861 38.8913 22.8303 38.5389L23.398 38.2049C23.5242 38.4795 23.7041 38.7244 23.9379 38.9396C24.1716 39.1548 24.4611 39.3236 24.8061 39.4461C25.1549 39.5685 25.5575 39.6297 26.0139 39.6297C26.8376 39.6297 27.4888 39.4164 27.9674 38.9897C28.4498 38.5667 28.691 37.9174 28.691 37.0417V34.9156H28.6242C28.4943 35.2867 28.3014 35.6169 28.0453 35.9063C27.793 36.192 27.4832 36.4165 27.1159 36.5797C26.7485 36.743 26.3311 36.8246 25.8636 36.8246C25.1883 36.8246 24.5946 36.6502 24.0826 36.3015C23.5705 35.9527 23.1717 35.4629 22.886 34.8321C22.6003 34.1976 22.4574 33.4518 22.4574 32.5947C22.4574 31.7376 22.5966 30.9788 22.8748 30.3184C23.1568 29.6542 23.5538 29.1347 24.0659 28.76C24.5779 28.3815 25.179 28.1923 25.8692 28.1923C26.3627 28.1923 26.7894 28.2869 27.1493 28.4761C27.5129 28.6616 27.8172 28.9084 28.062 29.2164C28.3069 29.5243 28.4962 29.862 28.6297 30.2293H28.7077V28.3203H29.3644V37.0695C29.3644 37.7819 29.2234 38.3737 28.9414 38.845C28.6631 39.3162 28.2717 39.6687 27.7671 39.9024C27.2662 40.1362 26.6818 40.2531 26.0139 40.2531ZM25.9248 36.1957C26.4962 36.1957 26.9879 36.051 27.3997 35.7616C27.8153 35.4685 28.1344 35.0529 28.357 34.5149C28.5834 33.9732 28.6965 33.3312 28.6965 32.5892C28.6965 31.8693 28.5871 31.2256 28.3682 30.6579C28.1492 30.0902 27.832 29.6431 27.4164 29.3165C27.0009 28.99 26.5037 28.8268 25.9248 28.8268C25.3349 28.8268 24.8321 28.9937 24.4165 29.3277C24.001 29.6579 23.6819 30.1069 23.4592 30.6746C23.2403 31.2423 23.1309 31.8805 23.1309 32.5892C23.1309 33.3016 23.2422 33.9286 23.4648 34.4704C23.6874 35.0084 24.0065 35.4314 24.4221 35.7393C24.8377 36.0436 25.3386 36.1957 25.9248 36.1957ZM36.9654 37.0473C36.1936 37.0473 35.522 36.8562 34.9506 36.474C34.3792 36.0918 33.9377 35.5686 33.626 34.9045C33.3143 34.2403 33.1585 33.4834 33.1585 32.6337C33.1585 31.7803 33.3143 31.0196 33.626 30.3518C33.9414 29.6839 34.3736 29.157 34.9228 28.7711C35.4719 28.3852 36.099 28.1923 36.804 28.1923C37.2826 28.1923 37.7353 28.2887 38.162 28.4817C38.5924 28.6709 38.9709 28.9455 39.2974 29.3054C39.6276 29.6653 39.8855 30.0994 40.071 30.6078C40.2603 31.1161 40.3549 31.6875 40.3549 32.322V32.745H33.587V32.1272H39.6759C39.6759 31.5076 39.5497 30.9491 39.2974 30.4519C39.0451 29.9547 38.7019 29.5596 38.2678 29.2664C37.8336 28.9733 37.3457 28.8268 36.804 28.8268C36.2363 28.8268 35.7298 28.9863 35.2846 29.3054C34.843 29.6208 34.4924 30.0475 34.2326 30.5855C33.9766 31.1235 33.843 31.7246 33.8319 32.3888V32.6671C33.8319 33.3795 33.9562 34.0195 34.2048 34.5872C34.4571 35.1512 34.817 35.5983 35.2846 35.9286C35.7521 36.2551 36.3124 36.4183 36.9654 36.4183C37.4329 36.4183 37.8318 36.3404 38.162 36.1846C38.4959 36.025 38.7687 35.8321 38.9802 35.6057C39.1917 35.3794 39.3512 35.1605 39.4588 34.949L40.0766 35.1995C39.9467 35.4852 39.7445 35.7709 39.4699 36.0566C39.1991 36.3386 38.854 36.5742 38.4347 36.7634C38.0192 36.9526 37.5294 37.0473 36.9654 37.0473ZM44.782 31.3257V36.8692H44.103V28.3203H44.7653V29.6727H44.8321C45.0325 29.2312 45.3534 28.8769 45.795 28.6097C46.2365 28.3425 46.7616 28.209 47.3701 28.209C47.9452 28.209 48.4498 28.3314 48.8839 28.5763C49.3218 28.8212 49.6631 29.17 49.908 29.6227C50.1566 30.0716 50.2809 30.6078 50.2809 31.2311V36.8692H49.6019V31.259C49.6019 30.5317 49.3849 29.9473 48.9507 29.5058C48.5203 29.0605 47.9508 28.8379 47.2421 28.8379C46.7671 28.8379 46.3441 28.9418 45.9731 29.1496C45.602 29.3574 45.3108 29.6486 45.0993 30.0234C44.8878 30.3944 44.782 30.8285 44.782 31.3257ZM57.5354 28.3203V28.9269H53.8009V28.3203H57.5354ZM55.0643 26.2721H55.7377V34.8488C55.7377 35.1976 55.8045 35.4833 55.9381 35.7059C56.0754 35.9248 56.2535 36.0881 56.4724 36.1957C56.695 36.2996 56.9325 36.3515 57.1848 36.3515C57.3072 36.3515 57.413 36.3423 57.502 36.3237C57.5948 36.3052 57.682 36.281 57.7636 36.2514L57.9306 36.8692C57.8267 36.9063 57.7117 36.9378 57.5855 36.9638C57.4594 36.9935 57.311 37.0083 57.1403 37.0083C56.7841 37.0083 56.4464 36.9285 56.1273 36.769C55.8119 36.6094 55.5559 36.3775 55.3593 36.0733C55.1626 35.769 55.0643 35.4017 55.0643 34.9713V26.2721Z" fill="#166534"/>
</svg>
