<svg width="114" height="41" viewBox="0 0 114 41" fill="none" xmlns="http://www.w3.org/2000/svg">
<path d="M11.229 17.1846C11.229 15.7426 11.4859 14.4829 11.9997 13.4056C12.5301 12.3282 13.2428 11.4995 14.1378 10.9194C15.0494 10.3393 16.0605 10.0492 17.171 10.0492C18.1323 10.0492 18.961 10.2399 19.6571 10.6211C20.3533 11.0023 20.8919 11.5161 21.2732 12.1625V10.2233H26.1461V24.1707H21.2732V22.2315C20.8919 22.8779 20.345 23.3917 19.6323 23.7729C18.9362 24.1542 18.1157 24.3448 17.171 24.3448C16.0605 24.3448 15.0494 24.0547 14.1378 23.4746C13.2428 22.8945 12.5301 22.0658 11.9997 20.9884C11.4859 19.8945 11.229 18.6266 11.229 17.1846ZM21.2732 17.1846C21.2732 16.2896 21.0245 15.5851 20.5273 15.0713C20.0466 14.5575 19.45 14.3006 18.7373 14.3006C18.008 14.3006 17.403 14.5575 16.9224 15.0713C16.4417 15.5686 16.2014 16.273 16.2014 17.1846C16.2014 18.0796 16.4417 18.7923 16.9224 19.3227C17.403 19.8365 18.008 20.0934 18.7373 20.0934C19.45 20.0934 20.0466 19.8365 20.5273 19.3227C21.0245 18.8089 21.2732 18.0962 21.2732 17.1846Z" fill="white"/>
<path d="M33.2985 12.1625C33.6797 11.4995 34.2184 10.9857 34.9145 10.6211C35.6106 10.2399 36.4311 10.0492 37.3758 10.0492C38.4863 10.0492 39.4891 10.3393 40.3841 10.9194C41.2957 11.4995 42.0084 12.3282 42.5222 13.4056C43.0526 14.4829 43.3178 15.7426 43.3178 17.1846C43.3178 18.6266 43.0526 19.8945 42.5222 20.9884C42.0084 22.0658 41.2957 22.8945 40.3841 23.4746C39.4891 24.0547 38.4863 24.3448 37.3758 24.3448C36.4311 24.3448 35.6106 24.1624 34.9145 23.7978C34.2184 23.4166 33.6797 22.8945 33.2985 22.2315V24.1707H28.4256V3.47101H33.2985V12.1625ZM38.3703 17.1846C38.3703 16.273 38.1217 15.5686 37.6244 15.0713C37.1438 14.5575 36.5471 14.3006 35.8344 14.3006C35.1217 14.3006 34.5167 14.5575 34.0195 15.0713C33.5388 15.5851 33.2985 16.2896 33.2985 17.1846C33.2985 18.0962 33.5388 18.8089 34.0195 19.3227C34.5167 19.8365 35.1217 20.0934 35.8344 20.0934C36.5471 20.0934 37.1438 19.8365 37.6244 19.3227C38.1217 18.7923 38.3703 18.0796 38.3703 17.1846Z" fill="white"/>
<path d="M47.2879 8.93047C46.426 8.93047 45.7299 8.69843 45.1995 8.23434C44.6857 7.75368 44.4288 7.157 44.4288 6.44429C44.4288 5.71501 44.6857 5.11004 45.1995 4.62938C45.7299 4.14872 46.426 3.90839 47.2879 3.90839C48.1332 3.90839 48.8127 4.14872 49.3266 4.62938C49.8569 5.11004 50.1221 5.71501 50.1221 6.44429C50.1221 7.157 49.8569 7.75368 49.3266 8.23434C48.8127 8.69843 48.1332 8.93047 47.2879 8.93047ZM49.6995 10.2233V24.1707H44.8266V10.2233H49.6995Z" fill="white"/>
<path d="M51.1817 17.1846C51.1817 15.7426 51.4386 14.4829 51.9524 13.4056C52.4828 12.3282 53.1955 11.4995 54.0905 10.9194C55.0021 10.3393 56.0131 10.0492 57.1236 10.0492C58.085 10.0492 58.9137 10.2399 59.6098 10.6211C60.3059 11.0023 60.8446 11.5161 61.2258 12.1625V10.2233H66.0987V24.1707H61.2258V22.2315C60.8446 22.8779 60.2977 23.3917 59.585 23.7729C58.8888 24.1542 58.0684 24.3448 57.1236 24.3448C56.0131 24.3448 55.0021 24.0547 54.0905 23.4746C53.1955 22.8945 52.4828 22.0658 51.9524 20.9884C51.4386 19.8945 51.1817 18.6266 51.1817 17.1846ZM61.2258 17.1846C61.2258 16.2896 60.9772 15.5851 60.48 15.0713C59.9993 14.5575 59.4026 14.3006 58.6899 14.3006C57.9607 14.3006 57.3557 14.5575 56.875 15.0713C56.3944 15.5686 56.154 16.273 56.154 17.1846C56.154 18.0796 56.3944 18.7923 56.875 19.3227C57.3557 19.8365 57.9607 20.0934 58.6899 20.0934C59.4026 20.0934 59.9993 19.8365 60.48 19.3227C60.9772 18.8089 61.2258 18.0962 61.2258 17.1846Z" fill="white"/>
<path d="M70.1434 14.226C70.5247 13.1321 71.2125 12.2371 72.207 11.541C73.218 10.8448 74.4362 10.4968 75.8616 10.4968C77.1213 10.4968 78.2401 10.7785 79.218 11.3421C80.2125 11.9056 80.9832 12.7095 81.5301 13.7537C82.0937 14.7978 82.3754 16.0161 82.3754 17.4083C82.3754 18.8006 82.0937 20.0271 81.5301 21.0879C80.9832 22.1321 80.2125 22.9442 79.218 23.5243C78.2401 24.0879 77.1213 24.3696 75.8616 24.3696C74.4528 24.3696 73.2429 24.0216 72.2318 23.3254C71.2374 22.6127 70.5412 21.7177 70.1434 20.6404V30.5353H69.0247V10.6708H70.1434V14.226ZM81.2318 17.4083C81.2318 16.1818 80.9997 15.1211 80.5357 14.226C80.0716 13.331 79.4169 12.6514 78.5716 12.1874C77.7429 11.7067 76.7815 11.4664 75.6876 11.4664C74.6434 11.4664 73.6987 11.715 72.8534 12.2122C72.0081 12.6929 71.3451 13.389 70.8644 14.3006C70.3838 15.1956 70.1434 16.2315 70.1434 17.4083C70.1434 18.6017 70.3838 19.6542 70.8644 20.5658C71.3451 21.4608 72.0081 22.1569 72.8534 22.6542C73.6987 23.1348 74.6434 23.3752 75.6876 23.3752C76.7815 23.3752 77.7429 23.1348 78.5716 22.6542C79.4169 22.1735 80.0716 21.4857 80.5357 20.5906C80.9997 19.6956 81.2318 18.6348 81.2318 17.4083Z" fill="white"/>
<path d="M84.5596 17.4083C84.5596 16.0161 84.8331 14.7978 85.38 13.7537C85.9435 12.7095 86.7143 11.9056 87.6922 11.3421C88.6866 10.7785 89.8137 10.4968 91.0734 10.4968C92.4988 10.4968 93.7087 10.8448 94.7032 11.541C95.6976 12.2371 96.3938 13.1238 96.7916 14.2012V10.6708H97.9103V24.1707H96.7916V20.6155C96.3938 21.7094 95.6894 22.6127 94.6783 23.3254C93.6838 24.0216 92.4822 24.3696 91.0734 24.3696C89.8137 24.3696 88.6866 24.0879 87.6922 23.5243C86.7143 22.9442 85.9435 22.1321 85.38 21.0879C84.8331 20.0271 84.5596 18.8006 84.5596 17.4083ZM96.7916 17.4083C96.7916 16.2315 96.543 15.1956 96.0457 14.3006C95.5651 13.389 94.9021 12.6929 94.0568 12.2122C93.2115 11.715 92.2667 11.4664 91.2225 11.4664C90.1286 11.4664 89.1673 11.7067 88.3386 12.1874C87.5098 12.6514 86.8634 13.331 86.3993 14.226C85.9353 15.1211 85.7032 16.1818 85.7032 17.4083C85.7032 18.6348 85.9353 19.6956 86.3993 20.5906C86.8634 21.4857 87.5098 22.1735 88.3386 22.6542C89.1839 23.1348 90.1452 23.3752 91.2225 23.3752C92.2667 23.3752 93.2115 23.1348 94.0568 22.6542C94.9186 22.1569 95.5899 21.4608 96.0706 20.5658C96.5512 19.6542 96.7916 18.6017 96.7916 17.4083Z" fill="white"/>
<path d="M112.028 10.6708L104.172 30.5105H103.028L105.539 24.1707L99.8707 10.6708H101.089L106.161 22.9276L110.885 10.6708H112.028Z" fill="white"/>
<path d="M8.17847 17.9911L2.04481 21.5324L2.04481 14.4498L8.17847 17.9911Z" fill="white"/>
<path d="M15.1834 37.0528C14.6899 37.0528 14.2372 36.9545 13.8253 36.7578C13.4172 36.5612 13.0888 36.2736 12.8402 35.8951C12.5953 35.5167 12.4729 35.0566 12.4729 34.5149C12.4729 34.1587 12.5359 33.8451 12.6621 33.5743C12.7883 33.3034 12.9831 33.0696 13.2465 32.873C13.5099 32.6763 13.8476 32.5149 14.2595 32.3888C14.6713 32.2589 15.1629 32.1587 15.7344 32.0882C16.1685 32.0363 16.5562 31.9862 16.8976 31.938C17.2389 31.886 17.5061 31.8062 17.699 31.6986C17.8957 31.591 17.994 31.4278 17.994 31.2089V30.8527C17.994 30.2293 17.7974 29.734 17.4041 29.3666C17.0107 28.9993 16.469 28.8156 15.7789 28.8156C15.1667 28.8156 14.6509 28.951 14.2316 29.2219C13.8161 29.4891 13.5248 29.8341 13.3578 30.2571L12.7178 30.0178C12.881 29.6097 13.1166 29.2701 13.4246 28.9993C13.7363 28.7284 14.0925 28.5262 14.4932 28.3926C14.8976 28.259 15.3206 28.1923 15.7622 28.1923C16.1444 28.1923 16.508 28.2461 16.8531 28.3537C17.2018 28.4613 17.5117 28.6245 17.7825 28.8434C18.0571 29.0624 18.2742 29.3425 18.4337 29.6839C18.5933 30.0215 18.673 30.4259 18.673 30.8972V36.8691H17.994V35.3274H17.9439C17.7955 35.6465 17.5914 35.9378 17.3317 36.2013C17.0757 36.461 16.7659 36.6688 16.4022 36.8246C16.0423 36.9767 15.636 37.0528 15.1834 37.0528ZM15.2501 36.4239C15.7844 36.4239 16.2575 36.294 16.6694 36.0343C17.085 35.7708 17.4096 35.4109 17.6434 34.9545C17.8771 34.4982 17.994 33.9806 17.994 33.4017V32.1439C17.9087 32.2181 17.7844 32.2849 17.6211 32.3443C17.4616 32.3999 17.2798 32.45 17.0757 32.4945C16.8753 32.5353 16.6638 32.5724 16.4412 32.6058C16.2223 32.6355 16.0089 32.6633 15.8011 32.6893C15.1778 32.7635 14.6695 32.8786 14.2761 33.0344C13.8866 33.1865 13.6008 33.3869 13.419 33.6355C13.2409 33.8841 13.1519 34.1846 13.1519 34.5371C13.1519 35.1197 13.3522 35.5798 13.753 35.9174C14.1537 36.2551 14.6528 36.4239 15.2501 36.4239ZM26.0138 40.2531C25.4832 40.2531 25.0064 40.1826 24.5834 40.0416C24.1604 39.9043 23.8005 39.7076 23.5037 39.4516C23.2106 39.1956 22.9861 38.8913 22.8302 38.5388L23.3979 38.2049C23.5241 38.4795 23.7041 38.7244 23.9378 38.9396C24.1716 39.1548 24.461 39.3236 24.8061 39.446C25.1548 39.5685 25.5574 39.6297 26.0138 39.6297C26.8375 39.6297 27.4887 39.4164 27.9674 38.9897C28.4497 38.5667 28.6909 37.9173 28.6909 37.0417V34.9156H28.6241C28.4942 35.2866 28.3013 35.6169 28.0453 35.9063C27.793 36.192 27.4832 36.4165 27.1158 36.5797C26.7485 36.743 26.3311 36.8246 25.8635 36.8246C25.1882 36.8246 24.5946 36.6502 24.0825 36.3014C23.5705 35.9527 23.1716 35.4629 22.8859 34.8321C22.6002 34.1976 22.4573 33.4518 22.4573 32.5947C22.4573 31.7376 22.5965 30.9788 22.8748 30.3183C23.1568 29.6542 23.5538 29.1347 24.0658 28.76C24.5779 28.3815 25.179 28.1923 25.8691 28.1923C26.3626 28.1923 26.7893 28.2869 27.1492 28.4761C27.5128 28.6616 27.8171 28.9084 28.062 29.2163C28.3069 29.5243 28.4961 29.862 28.6297 30.2293H28.7076V28.3203H29.3643V37.0695C29.3643 37.7819 29.2234 38.3737 28.9414 38.845C28.6631 39.3162 28.2716 39.6687 27.767 39.9024C27.2661 40.1362 26.6817 40.2531 26.0138 40.2531ZM25.9248 36.1957C26.4962 36.1957 26.9878 36.051 27.3997 35.7616C27.8152 35.4684 28.1343 35.0529 28.357 34.5149C28.5833 33.9731 28.6965 33.3312 28.6965 32.5891C28.6965 31.8693 28.587 31.2256 28.3681 30.6579C28.1492 30.0902 27.8319 29.643 27.4164 29.3165C27.0008 28.99 26.5036 28.8267 25.9248 28.8267C25.3348 28.8267 24.832 28.9937 24.4165 29.3277C24.0009 29.6579 23.6818 30.1069 23.4592 30.6745C23.2403 31.2422 23.1308 31.8804 23.1308 32.5891C23.1308 33.3015 23.2421 33.9286 23.4647 34.4703C23.6874 35.0084 24.0065 35.4313 24.422 35.7393C24.8376 36.0436 25.3385 36.1957 25.9248 36.1957ZM36.9653 37.0472C36.1936 37.0472 35.522 36.8562 34.9506 36.474C34.3791 36.0918 33.9376 35.5686 33.6259 34.9045C33.3142 34.2403 33.1584 33.4834 33.1584 32.6337C33.1584 31.7803 33.3142 31.0196 33.6259 30.3517C33.9413 29.6839 34.3736 29.157 34.9227 28.7711C35.4719 28.3852 36.0989 28.1923 36.8039 28.1923C37.2826 28.1923 37.7352 28.2887 38.1619 28.4817C38.5924 28.6709 38.9708 28.9455 39.2973 29.3054C39.6276 29.6653 39.8855 30.0994 40.071 30.6078C40.2602 31.1161 40.3548 31.6875 40.3548 32.322V32.745H33.587V32.1272H39.6758C39.6758 31.5075 39.5497 30.9491 39.2973 30.4519C39.045 29.9547 38.7018 29.5596 38.2677 29.2664C37.8336 28.9733 37.3456 28.8267 36.8039 28.8267C36.2362 28.8267 35.7297 28.9863 35.2845 29.3054C34.843 29.6208 34.4923 30.0475 34.2326 30.5855C33.9766 31.1235 33.843 31.7246 33.8319 32.3888V32.6671C33.8319 33.3795 33.9562 34.0195 34.2048 34.5872C34.4571 35.1512 34.817 35.5983 35.2845 35.9285C35.752 36.2551 36.3123 36.4183 36.9653 36.4183C37.4328 36.4183 37.8317 36.3404 38.1619 36.1846C38.4959 36.025 38.7686 35.8321 38.9801 35.6057C39.1916 35.3794 39.3511 35.1605 39.4587 34.949L40.0765 35.1994C39.9467 35.4851 39.7445 35.7708 39.4699 36.0566C39.199 36.3385 38.8539 36.5742 38.4347 36.7634C38.0191 36.9526 37.5293 37.0472 36.9653 37.0472ZM44.782 31.3257V36.8691H44.103V28.3203H44.7653V29.6727H44.8321C45.0324 29.2312 45.3534 28.8768 45.7949 28.6097C46.2365 28.3425 46.7615 28.209 47.37 28.209C47.9451 28.209 48.4498 28.3314 48.8839 28.5763C49.3217 28.8212 49.6631 29.17 49.908 29.6226C50.1566 30.0716 50.2809 30.6078 50.2809 31.2311V36.8691H49.6019V31.2589C49.6019 30.5317 49.3848 29.9473 48.9507 29.5058C48.5203 29.0605 47.9507 28.8379 47.242 28.8379C46.7671 28.8379 46.3441 28.9418 45.973 29.1496C45.602 29.3573 45.3107 29.6486 45.0992 30.0234C44.8877 30.3944 44.782 30.8285 44.782 31.3257ZM57.5354 28.3203V28.9269H53.8008V28.3203H57.5354ZM55.0642 26.2721H55.7377V34.8488C55.7377 35.1976 55.8045 35.4833 55.938 35.7059C56.0753 35.9248 56.2534 36.0881 56.4723 36.1957C56.695 36.2996 56.9324 36.3515 57.1847 36.3515C57.3072 36.3515 57.4129 36.3423 57.502 36.3237C57.5947 36.3052 57.6819 36.281 57.7636 36.2514L57.9305 36.8691C57.8267 36.9062 57.7116 36.9378 57.5855 36.9638C57.4593 36.9934 57.3109 37.0083 57.1402 37.0083C56.784 37.0083 56.4464 36.9285 56.1273 36.769C55.8119 36.6094 55.5559 36.3775 55.3592 36.0732C55.1625 35.769 55.0642 35.4017 55.0642 34.9712V26.2721Z" fill="white"/>
</svg>
